<svg viewBox="-375,-375,750,750" xmlns="http://www.w3.org/2000/svg" xmlns:xlink="http://www.w3.org/1999/xlink"><g font-size="12" font-family="sans-serif"><g><path fill="#1f77b4" d="M1.8369701987210297e-14,-300A300,300,0,0,1,155.77920764457147,-256.38416188530346L147.99024726234288,-243.56495379103828A285,285,0,0,0,1.7451216887849784e-14,-285Z"/><text dy="0.35em" transform="&#xA;        rotate(-74.3585516396459)&#xA;        translate(305)&#xA;        &#xA;      ">F_Asian</text><title>F_Asian
304 outgoing →
288 incoming ←</title></g><g><path fill="#ff7f0e" d="M164.67741357922782,-250.76153903032247A300,300,0,0,1,178.96146948790312,-240.7753983253487L170.01339601350796,-228.73662840908128A285,285,0,0,0,156.44354290026644,-238.22346207880636Z"/><text dy="0.35em" transform="&#xA;        rotate(-55.04217902592759)&#xA;        translate(305)&#xA;        &#xA;      ">F_Black</text><title>F_Black
16 outgoing →
47 incoming ←</title></g><g><path fill="#2ca02c" d="M187.29784294545385,-234.349137032719A300,300,0,0,1,216.8718430155476,-207.28387227915172L206.02825086477023,-196.91967866519414A285,285,0,0,0,177.93295079818114,-222.63168018108306Z"/><text dy="0.35em" transform="&#xA;        rotate(-47.53615677889558)&#xA;        translate(305)&#xA;        &#xA;      ">F_Hispanic</text><title>F_Hispanic
63 outgoing →
82 incoming ←</title></g><g><path fill="#d62728" d="M224.00998207529133,-199.54830976640133A300,300,0,0,1,226.9301156645121,-196.22110641949604L215.5836098812865,-186.41005109852122A285,285,0,0,0,212.80948297152676,-189.57089427808125Z"/><text dy="0.35em" transform="&#xA;        rotate(-41.271938709121414)&#xA;        translate(305)&#xA;        &#xA;      ">F_Indigenous</text><title>F_Indigenous
6 outgoing →
10 incoming ←</title></g><g><path fill="#9467bd" d="M233.6739761686099,-188.1395037241034A300,300,0,0,1,241.93485248251895,-177.3908880248977L229.83810985839298,-168.52134362365283A285,285,0,0,0,221.99027736017942,-178.73252853789825Z"/><text dy="0.35em" transform="&#xA;        rotate(-37.544171724810084)&#xA;        translate(305)&#xA;        &#xA;      ">F_Middle Eastern</text><title>F_Middle Eastern
26 outgoing →
23 incoming ←</title></g><g><path fill="#8c564b" d="M248.00890355415356,-168.79450156289622A300,300,0,0,1,65.62333305170682,292.734654865434L62.34216639912148,278.0979221221623A285,285,0,0,0,235.60845837644587,-160.3547764847514Z"/><text dy="0.35em" transform="&#xA;        rotate(21.562777292106347)&#xA;        translate(305)&#xA;        &#xA;      ">F_White</text><title>F_White
967 outgoing →
1145 incoming ←</title></g><g><path fill="#e377c2" d="M55.31365724893127,294.8565741538549A300,300,0,0,1,-104.28161652613906,281.29227585324L-99.0675356998321,267.22766206057804A285,285,0,0,0,52.547974386484704,280.11374544616217Z"/><text dy="0.35em" transform="&#xA;        rotate(94.85799956833048)&#xA;        translate(305)&#xA;        rotate(180)&#xA;      " text-anchor="end">M_Asian</text><title>M_Asian
315 outgoing →
271 incoming ←</title></g><g><path fill="#7f7f7f" d="M-114.08530937925646,277.4608840608696A300,300,0,0,1,-128.75704668536426,270.96424658774254L-122.31919435109604,257.4160342583554A285,285,0,0,0,-108.38104391029363,263.58783985782617Z"/><text dy="0.35em" transform="&#xA;        rotate(113.88373716183952)&#xA;        translate(305)&#xA;        rotate(180)&#xA;      " text-anchor="end">M_Black</text><title>M_Black
23 outgoing →
35 incoming ←</title></g><g><path fill="#bcbd22" d="M-138.1833620074911,266.28060099133523A300,300,0,0,1,-175.38411723228361,243.39353200660983L-166.61491137066943,231.22385540627934A285,285,0,0,0,-131.27419390711654,252.96657094176845Z"/><text dy="0.35em" transform="&#xA;        rotate(121.60113033266015)&#xA;        translate(305)&#xA;        rotate(180)&#xA;      " text-anchor="end">M_Hispanic</text><title>M_Hispanic
80 outgoing →
78 incoming ←</title></g><g><path fill="#17becf" d="M-183.81453808012068,237.09115460175198A300,300,0,0,1,-184.90590152568885,236.24099470873438L-175.6606064494044,224.42894497329766A285,285,0,0,0,-174.62381117611466,225.23659687166437Z"/><text dy="0.35em" transform="&#xA;        rotate(127.91819113338144)&#xA;        translate(305)&#xA;        rotate(180)&#xA;      " text-anchor="end">M_Indigenous</text><title>M_Indigenous
3 outgoing →
2 incoming ←</title></g><g><path fill="#1f77b4" d="M-193.07954688373766,229.60899062356106A300,300,0,0,1,-204.0679340372956,219.9006100440605L-193.8645373354308,208.90557954185746A285,285,0,0,0,-183.4255695395508,218.12854109238302Z"/><text dy="0.35em" transform="&#xA;        rotate(131.4610085593778)&#xA;        translate(305)&#xA;        rotate(180)&#xA;      " text-anchor="end">M_Middle Eastern</text><title>M_Middle Eastern
25 outgoing →
28 incoming ←</title></g><g><path fill="#ff7f0e" d="M-211.65655576426332,212.60644957763932A300,300,0,0,1,-43.336530267030106,-296.8534068263573L-41.169703753678604,-282.0107364850394A285,285,0,0,0,-201.07372797605015,201.97612709875736Z"/><text dy="0.35em" transform="&#xA;        rotate(198.282996294577)&#xA;        translate(305)&#xA;        rotate(180)&#xA;      " text-anchor="end">M_White</text><title>M_White
1289 outgoing →
1111 incoming ←</title></g><g><path fill="#2ca02c" d="M-32.89608427290255,-298.19095834634237A300,300,0,0,1,-32.34599772213053,-298.25112980734866L-30.728697836023997,-283.3385733169812A285,285,0,0,0,-31.25128005925742,-283.28141042902524Z"/><text dy="0.35em" transform="&#xA;        rotate(263.757494390624)&#xA;        translate(305)&#xA;        rotate(180)&#xA;      " text-anchor="end">N_Asian</text><title>N_Asian
2 outgoing →
0 incoming ←</title></g><g><path fill="#d62728" d="M-21.86328367120058,-299.2022674163961A300,300,0,0,1,-21.587326252158608,-299.22230422427214L-20.507959939550677,-284.2611890130585A285,285,0,0,0,-20.770119487640553,-284.24215404557634Z"/><text dy="0.35em" transform="&#xA;        rotate(265.8471367155739)&#xA;        translate(305)&#xA;        rotate(180)&#xA;      " text-anchor="end">N_Hispanic</text><title>N_Hispanic
0 outgoing →
1 incoming ←</title></g><g><path fill="#9467bd" d="M-11.077164976866358,-299.79542427474655A300,300,0,0,1,-10.524156013575872,-299.8153467389585L-9.997948212897079,-284.82457940201056A285,285,0,0,0,-10.52330672802304,-284.8056530610092Z"/><text dy="0.35em" transform="&#xA;        rotate(267.9367790405238)&#xA;        translate(305)&#xA;        rotate(180)&#xA;      " text-anchor="end">N_White</text><title>N_White
2 outgoing →
0 incoming ←</title></g></g><g fill-opacity="0.75"><path style="mix-blend-mode: multiply;" fill="#1f77b4" d="M74.67756519892558,-274.00595113238Q0,0,224.85938906057143,-173.47695856022656Q0,0,74.67756519892558,-274.00595113238Z"><title>F_Asian --&gt; F_Middle Eastern 1</title></path><path style="mix-blend-mode: multiply;" fill="#ff7f0e" d="M166.14126494537746,-230.3325423867628Q0,0,-18.174022938472525,283.4178979708795Q0,0,166.14126494537746,-230.3325423867628Z"><title>F_Black --&gt; M_Asian 1</title></path><path style="mix-blend-mode: multiply;" fill="#ff7f0e" d="M166.35362526985963,-230.17921574194122Q0,0,-116.30226307330838,259.0941597258166Q0,0,166.35362526985963,-230.17921574194122Z"><title>F_Black --&gt; M_Black 1</title></path><path style="mix-blend-mode: multiply;" fill="#ff7f0e" d="M166.56584409400216,-230.0256933067534Q0,0,-148.48199509450842,242.09315796352936Q0,0,166.56584409400216,-230.0256933067534Z"><title>F_Black --&gt; M_Hispanic 1</title></path><path style="mix-blend-mode: multiply;" fill="#ff7f0e" d="M166.77792123729174,-229.8719752117855Q0,0,-188.23550937889837,212.65792486730106Q0,0,166.77792123729174,-229.8719752117855Z"><title>F_Black --&gt; M_Middle Eastern 1</title></path><path style="mix-blend-mode: multiply;" fill="#2ca02c" d="M193.65951219055574,-207.73057872666698Q0,0,165.9287633011892,-230.48567311079864Q0,0,193.65951219055574,-207.73057872666698Z"><title>F_Hispanic --&gt; F_Black 1</title></path><path style="mix-blend-mode: multiply;" fill="#d62728" d="M213.88216211299022,-186.84330528513075Q0,0,74.42482336421494,-274.074708185935Q0,0,213.88216211299022,-186.84330528513075Z"><title>F_Indigenous --&gt; F_Asian 1</title></path><path style="mix-blend-mode: multiply;" fill="#d62728" d="M214.0543929009911,-186.64596668502676Q0,0,165.71612051804877,-230.63860778379566Q0,0,214.0543929009911,-186.64596668502676Z"><title>F_Indigenous --&gt; F_Black 1</title></path><path style="mix-blend-mode: multiply;" fill="#d62728" d="M214.22644161439493,-186.44846932392406Q0,0,254.73518259215592,125.56268056130767Q0,0,214.22644161439493,-186.44846932392406Z"><title>F_Indigenous --&gt; F_White 1</title></path><path style="mix-blend-mode: multiply;" fill="#d62728" d="M214.39830810685697,-186.25081336981384Q0,0,-17.91262468899067,283.43453896226436Q0,0,214.39830810685697,-186.25081336981384Z"><title>F_Indigenous --&gt; M_Asian 1</title></path><path style="mix-blend-mode: multiply;" fill="#9467bd" d="M225.0192876722513,-173.26950157333695Q0,0,-17.651211203036063,283.4509388643224Q0,0,225.0192876722513,-173.26950157333695Z"><title>F_Middle Eastern --&gt; M_Asian 1</title></path><path style="mix-blend-mode: multiply;" fill="#e377c2" d="M-18.43540572913637,283.4010159043226Q0,0,-116.06325637529255,259.20131272731453Q0,0,-18.43540572913637,283.4010159043226Z"><title>M_Asian --&gt; M_Black 1</title></path><path style="mix-blend-mode: multiply;" fill="#7f7f7f" d="M-116.54117084465699,258.98678633891046Q0,0,165.50333677682994,-230.79134627566782Q0,0,-116.54117084465699,258.98678633891046Z"><title>M_Black --&gt; F_Black 1</title></path><path style="mix-blend-mode: multiply;" fill="#bcbd22" d="M-148.70520950424708,241.95611309966523Q0,0,165.29041225852663,-230.94388845649567Q0,0,-148.70520950424708,241.95611309966523Z"><title>M_Hispanic --&gt; F_Black 1</title></path><path style="mix-blend-mode: multiply;" fill="#17becf" d="M-174.52813866400885,224.04447954474688Q0,0,-276.09094723726827,-66.55665897284774Q0,0,-174.52813866400885,224.04447954474688Z"><title>M_Indigenous --&gt; M_White 1</title></path><path style="mix-blend-mode: multiply;" fill="#1f77b4" d="M-188.43155936911617,212.48422867056098Q0,0,74.17201822377379,-274.143232111632Q0,0,-188.43155936911617,212.48422867056098Z"><title>M_Middle Eastern --&gt; F_Asian 1</title></path><path style="mix-blend-mode: multiply;" fill="#1f77b4" d="M-188.62744907951094,212.31035173480475Q0,0,-17.38978270296694,283.46709766310374Q0,0,-188.62744907951094,212.31035173480475Z"><title>M_Middle Eastern --&gt; M_Asian 1</title></path><path style="mix-blend-mode: multiply;" fill="#ff7f0e" d="M-276.0294459730069,-66.81126368985164Q0,0,-20.56662421713549,-283.2543273602561Q0,0,-276.0294459730069,-66.81126368985164Z"><title>M_White --&gt; N_Hispanic 1</title></path><path style="mix-blend-mode: multiply;" fill="#2ca02c" d="M-31.011449158854965,-282.3017711971849Q0,0,165.07734714425223,-231.09623419652698Q0,0,-31.011449158854965,-282.3017711971849Z"><title>N_Asian --&gt; F_Black 1</title></path><path style="mix-blend-mode: multiply;" fill="#2ca02c" d="M-30.751074830471666,-282.33025235842285Q0,0,193.46784417083146,-207.9090985789003Q0,0,-30.751074830471666,-282.33025235842285Z"><title>N_Asian --&gt; F_Hispanic 1</title></path><path style="mix-blend-mode: multiply;" fill="#9467bd" d="M-10.355507332103558,-283.8111404929249Q0,0,254.85087814082956,125.32769012013283Q0,0,-10.355507332103558,-283.8111404929249Z"><title>N_White --&gt; F_White 1</title></path><path style="mix-blend-mode: multiply;" fill="#9467bd" d="M-10.093749728314945,-283.82057046032116Q0,0,-148.25865438603313,242.22999690303178Q0,0,-10.093749728314945,-283.82057046032116Z"><title>N_White --&gt; M_Hispanic 1</title></path><path style="mix-blend-mode: multiply;" fill="#ff7f0e" d="M167.0957709060507,-229.64103149331268Q0,0,193.18003363532077,-208.17654672094147Q0,0,167.0957709060507,-229.64103149331268Z"><title>F_Black --&gt; F_Hispanic 2</title></path><path style="mix-blend-mode: multiply;" fill="#d62728" d="M214.65576586153705,-185.95403244457216Q0,0,-276.18275878698574,-66.17464581552106Q0,0,214.65576586153705,-185.95403244457216Z"><title>F_Indigenous --&gt; M_White 2</title></path><path style="mix-blend-mode: multiply;" fill="#9467bd" d="M225.258776669813,-172.95803980509064Q0,0,-187.9411342337278,212.91812995360422Q0,0,225.258776669813,-172.95803980509064Z"><title>F_Middle Eastern --&gt; M_Middle Eastern 2</title></path><path style="mix-blend-mode: multiply;" fill="#e377c2" d="M-18.82745044350043,283.375240820008Q0,0,164.7574862518751,-231.32438419665834Q0,0,-18.82745044350043,283.375240820008Z"><title>M_Asian --&gt; F_Black 2</title></path><path style="mix-blend-mode: multiply;" fill="#e377c2" d="M-19.350120548468706,283.34003041356465Q0,0,-187.54807461835446,213.2644361044479Q0,0,-19.350120548468706,283.34003041356465Z"><title>M_Asian --&gt; M_Middle Eastern 2</title></path><path style="mix-blend-mode: multiply;" fill="#17becf" d="M-174.83791904805042,223.80281960455136Q0,0,255.02401497799795,124.97500463893525Q0,0,-174.83791904805042,223.80281960455136Z"><title>M_Indigenous --&gt; F_White 2</title></path><path style="mix-blend-mode: multiply;" fill="#ff7f0e" d="M-275.93675386072243,-67.1930641421202Q0,0,-174.2180242594461,224.28571069761674Q0,0,-275.93675386072243,-67.1930641421202Z"><title>M_White --&gt; M_Indigenous 2</title></path><path style="mix-blend-mode: multiply;" fill="#1f77b4" d="M75.18285809128042,-273.86773787583377Q0,0,164.22368435389745,-231.70365015949028Q0,0,75.18285809128042,-273.86773787583377Z"><title>F_Asian --&gt; F_Black 3</title></path><path style="mix-blend-mode: multiply;" fill="#8c564b" d="M254.50314156041256,126.03234083313936Q0,0,224.5390181774141,-173.89142967933435Q0,0,254.50314156041256,126.03234083313936Z"><title>F_White --&gt; F_Middle Eastern 3</title></path><path style="mix-blend-mode: multiply;" fill="#e377c2" d="M-20.00336538828655,283.2946617448742Q0,0,224.05702974820775,-174.51202657814372Q0,0,-20.00336538828655,283.2946617448742Z"><title>M_Asian --&gt; F_Middle Eastern 3</title></path><path style="mix-blend-mode: multiply;" fill="#7f7f7f" d="M-117.01868879457729,258.77137877438815Q0,0,73.66621888589714,-274.2795803465054Q0,0,-117.01868879457729,258.77137877438815Z"><title>M_Black --&gt; F_Asian 3</title></path><path style="mix-blend-mode: multiply;" fill="#1f77b4" d="M-189.01874699447197,211.96205623799696Q0,0,223.5733260744429,-175.13128751885208Q0,0,-189.01874699447197,211.96205623799696Z"><title>M_Middle Eastern --&gt; F_Middle Eastern 3</title></path><path style="mix-blend-mode: multiply;" fill="#1f77b4" d="M76.0418302368074,-273.6304808573719A284,284,0,0,1,76.09117733589525,-273.6167625194724Q0,0,-115.4419105801341,259.47864128210693A284,284,0,0,1,-115.4887048018719,259.4578175025491Q0,0,76.0418302368074,-273.6304808573719Z"><title>F_Asian --&gt; M_Black 4</title></path><path style="mix-blend-mode: multiply;" fill="#1f77b4" d="M77.05076578475595,-273.3480921681779A284,284,0,0,1,77.10006193958694,-273.33419187674247Q0,0,-186.93801091133844,213.79939213316842A284,284,0,0,1,-186.9765658716247,213.76567501555058Q0,0,77.05076578475595,-273.3480921681779Z"><title>F_Asian --&gt; M_Middle Eastern 4</title></path><path style="mix-blend-mode: multiply;" fill="#ff7f0e" d="M167.70984384102272,-229.19294988899588A284,284,0,0,1,167.75117529030624,-229.16270025621742Q0,0,-276.37069313005367,-65.38531929121177A284,284,0,0,1,-276.35889661345254,-65.43516075165583Q0,0,167.70984384102272,-229.19294988899588Z"><title>F_Black --&gt; M_White 4</title></path><path style="mix-blend-mode: multiply;" fill="#9467bd" d="M225.72092001624438,-172.35447852324643A284,284,0,0,1,225.7519998952301,-172.31376771257723Q0,0,72.75571366452584,-274.5225056879044A284,284,0,0,1,72.80522169072805,-274.5093799755556Q0,0,225.72092001624438,-172.35447852324643Z"><title>F_Middle Eastern --&gt; F_Asian 4</title></path><path style="mix-blend-mode: multiply;" fill="#8c564b" d="M254.10642435103117,126.83030041568804A284,284,0,0,1,254.08354680108476,126.87612559099122Q0,0,-186.1480093201544,214.48757219508948A284,284,0,0,1,-186.18668840424456,214.45399754040665Q0,0,254.10642435103117,126.83030041568804Z"><title>F_White --&gt; M_Middle Eastern 4</title></path><path style="mix-blend-mode: multiply;" fill="#1f77b4" d="M78.05865270411748,-273.06198332616344A284,284,0,0,1,78.35969050911248,-272.97574782994207Q0,0,192.39189597751698,-208.90514201947323A284,284,0,0,1,192.62212327566516,-208.69287871121634Q0,0,78.05865270411748,-273.06198332616344Z"><title>F_Asian --&gt; F_Hispanic 5</title></path><path style="mix-blend-mode: multiply;" fill="#1f77b4" d="M79.3170158238756,-272.6991217455514A284,284,0,0,1,79.61765276328987,-272.61149896595373Q0,0,-147.4540837248752,242.72060726864024A284,284,0,0,1,-147.7216241532704,242.55787300667015Q0,0,79.3170158238756,-272.6991217455514Z"><title>F_Asian --&gt; M_Hispanic 5</title></path><path style="mix-blend-mode: multiply;" fill="#2ca02c" d="M194.11926897366604,-207.3010116066236A284,284,0,0,1,194.3477264657757,-207.0868446270405Q0,0,-16.449101763274793,283.52323899670273A284,284,0,0,1,-16.761711873265185,283.50492943699874Q0,0,194.11926897366604,-207.3010116066236Z"><title>F_Hispanic --&gt; M_Asian 5</title></path><path style="mix-blend-mode: multiply;" fill="#8c564b" d="M253.63680425580958,127.76686396284495A284,284,0,0,1,253.49577099934137,128.04645284212083Q0,0,213.261011317996,-187.55196893561418A284,284,0,0,1,213.46768136506432,-187.31670777755883Q0,0,253.63680425580958,127.76686396284495Z"><title>F_White --&gt; F_Indigenous 5</title></path><path style="mix-blend-mode: multiply;" fill="#bcbd22" d="M-149.2409041095197,241.62605931598756A284,284,0,0,1,-149.50723657463433,241.46135552468084Q0,0,71.48901198803142,-274.8550912116694A284,284,0,0,1,71.79203091412651,-274.7760984824282Q0,0,-149.2409041095197,241.62605931598756Z"><title>M_Hispanic --&gt; F_Asian 5</title></path><path style="mix-blend-mode: multiply;" fill="#ff7f0e" d="M-275.75591223255896,-67.93141297506803A284,284,0,0,1,-275.68084165706495,-68.2354273325249Q0,0,212.39387007759785,-188.53340275256392A284,284,0,0,1,212.60162280628822,-188.29909713042375Q0,0,-275.75591223255896,-67.93141297506803Z"><title>M_White --&gt; F_Indigenous 5</title></path><path style="mix-blend-mode: multiply;" fill="#ff7f0e" d="M168.5542206588287,-228.57269018431506A284,284,0,0,1,169.01671297826155,-228.23091537743952Q0,0,255.60877311685547,123.7746141407676A284,284,0,0,1,255.3576173108678,124.29194375065661Q0,0,168.5542206588287,-228.57269018431506Z"><title>F_Black --&gt; F_White 6</title></path><path style="mix-blend-mode: multiply;" fill="#e377c2" d="M-20.89218898167467,283.23050054602874A284,284,0,0,1,-21.46566087403966,283.1876152010195Q0,0,191.23294245590446,-209.96657286257908A284,284,0,0,1,191.65771266993715,-209.57891395397536Q0,0,-20.89218898167467,283.23050054602874Z"><title>M_Asian --&gt; F_Hispanic 6</title></path><path style="mix-blend-mode: multiply;" fill="#bcbd22" d="M-150.35354733582298,240.93528343423353A284,284,0,0,1,-150.84111003993092,240.6303379084222Q0,0,190.06813309238316,-211.02157421168133A284,284,0,0,1,190.49504197142835,-210.6362717679549Q0,0,-150.35354733582298,240.93528343423353Z"><title>M_Hispanic --&gt; F_Hispanic 6</title></path><path style="mix-blend-mode: multiply;" fill="#bcbd22" d="M-151.6844967448474,240.09959068532868A284,284,0,0,1,-152.17036452231383,239.79195182729995Q0,0,-14.879931656169452,283.60992160696304A284,284,0,0,1,-15.454184165816592,283.5792097311949Q0,0,-151.6844967448474,240.09959068532868Z"><title>M_Hispanic --&gt; M_Asian 6</title></path><path style="mix-blend-mode: multiply;" fill="#2ca02c" d="M195.073149129387,-206.4036494075237A284,284,0,0,1,195.68061091033866,-205.82783707204587Q0,0,69.71308172691906,-275.3108901517263A284,284,0,0,1,70.52417007075502,-275.1042374007191Q0,0,195.073149129387,-206.4036494075237Z"><title>F_Hispanic --&gt; F_Asian 7</title></path><path style="mix-blend-mode: multiply;" fill="#9467bd" d="M226.35521869665476,-171.52059633988443A284,284,0,0,1,227.01721543926254,-170.64344081799177Q0,0,-276.8455945905565,-63.344429556206585A284,284,0,0,1,-276.59841356780305,-64.41519705608748Q0,0,226.35521869665476,-171.52059633988443Z"><title>F_Middle Eastern --&gt; M_White 8</title></path><path style="mix-blend-mode: multiply;" fill="#e377c2" d="M-22.45916745337083,283.1105540196293A284,284,0,0,1,-23.815497957580707,282.99968561295697Q0,0,-145.43432073032113,243.93617680391338A284,284,0,0,1,-146.601526530711,243.2364948334547Q0,0,-22.45916745337083,283.1105540196293Z"><title>M_Asian --&gt; M_Hispanic 9</title></path><path style="mix-blend-mode: multiply;" fill="#7f7f7f" d="M-117.8300856264128,258.4029235927338A284,284,0,0,1,-119.06692902807151,257.8353474832809Q0,0,256.62734908922425,121.64868967414911A284,284,0,0,1,256.0414956578454,122.8769811693529Q0,0,-117.8300856264128,258.4029235927338Z"><title>M_Black --&gt; F_White 9</title></path><path style="mix-blend-mode: multiply;" fill="#1f77b4" d="M-189.68291107146547,211.36790969173754A284,284,0,0,1,-190.69355065231613,210.45657447467053Q0,0,-277.36184297326605,-61.04431228602145A284,284,0,0,1,-277.0661511030186,-62.37265356676154Q0,0,-189.68291107146547,211.36790969173754Z"><title>M_Middle Eastern --&gt; M_White 9</title></path><path style="mix-blend-mode: multiply;" fill="#2ca02c" d="M196.40160780776404,-205.13997282471607A284,284,0,0,1,197.57057000033166,-204.01438642836942Q0,0,-143.17839365342866,245.2670943906333A284,284,0,0,1,-144.5775108217681,244.4449700128467Q0,0,196.40160780776404,-205.13997282471607Z"><title>F_Hispanic --&gt; M_Hispanic 10</title></path><path style="mix-blend-mode: multiply;" fill="#7f7f7f" d="M-119.97087965716942,257.4159824763897A284,284,0,0,1,-121.43979435416867,256.72626734952Q0,0,-277.9130381440111,-58.483700546095925A284,284,0,0,1,-277.5743257374877,-60.07073906136905Q0,0,-119.97087965716942,257.4159824763897Z"><title>M_Black --&gt; M_White 10</title></path><path style="mix-blend-mode: multiply;" fill="#9467bd" d="M227.61456566826146,-169.84584038370997A284,284,0,0,1,228.73669393006043,-168.33159195452845Q0,0,257.84825686758916,119.03897021709221A284,284,0,0,1,257.0526059913442,120.74749584591295Q0,0,227.61456566826146,-169.84584038370997Z"><title>F_Middle Eastern --&gt; F_White 11</title></path><path style="mix-blend-mode: multiply;" fill="#1f77b4" d="M-191.43081939930073,209.78618015520544A284,284,0,0,1,-192.81879872969472,208.51117681418776Q0,0,259.0426264688112,116.4169990686067A284,284,0,0,1,258.2643493625392,118.13350857544314Q0,0,-191.43081939930073,209.78618015520544Z"><title>M_Middle Eastern --&gt; F_White 11</title></path><path style="mix-blend-mode: multiply;" fill="#8c564b" d="M253.04492566927618,128.93512164274904A284,284,0,0,1,252.06313956185977,130.84408154065818Q0,0,-112.56315683015862,260.74036075074594A284,284,0,0,1,-114.5307504456968,259.882102504858Q0,0,253.04492566927618,128.93512164274904Z"><title>F_White --&gt; M_Black 12</title></path><path style="mix-blend-mode: multiply;" fill="#ff7f0e" d="M-275.43972257838914,-69.20230650737038A284,284,0,0,1,-274.8429288575923,-71.53575649268305Q0,0,221.52348912468432,-177.71703285286378A284,284,0,0,1,223.022698441167,-175.83195380823216Q0,0,-275.43972257838914,-69.20230650737038Z"><title>M_White --&gt; F_Middle Eastern 13</title></path><path style="mix-blend-mode: multiply;" fill="#ff7f0e" d="M-274.5902348583298,-72.49967531270268A284,284,0,0,1,-273.8270208679567,-75.33102045359266Q0,0,-183.16302847321288,217.0421733224237A284,284,0,0,1,-185.39427701417085,215.1394014363545Q0,0,-274.5902348583298,-72.49967531270268Z"><title>M_White --&gt; M_Middle Eastern 15</title></path><path style="mix-blend-mode: multiply;" fill="#ff7f0e" d="M-273.5610164340258,-76.29135132885413A284,284,0,0,1,-272.6856280874647,-79.36339354226781Q0,0,160.87363249650213,-234.04203547093925A284,284,0,0,1,163.49583611824644,-232.21781062613502Q0,0,-273.5610164340258,-76.29135132885413Z"><title>M_White --&gt; F_Black 16</title></path><path style="mix-blend-mode: multiply;" fill="#ff7f0e" d="M-272.4054820311718,-80.31969471658209A284,284,0,0,1,-271.4078443946887,-83.62883474632689Q0,0,-108.46140533169579,262.47309110359026A284,284,0,0,1,-111.64758733979252,261.133713337063Q0,0,-272.4054820311718,-80.31969471658209Z"><title>M_White --&gt; M_Black 17</title></path><path style="mix-blend-mode: multiply;" fill="#2ca02c" d="M198.2851922920134,-203.31990192236293A284,284,0,0,1,201.11506215182283,-200.52115044470605Q0,0,-278.8951460959306,-53.60501361001162A284,284,0,0,1,-278.11653293106133,-57.508209069713516Q0,0,198.2851922920134,-203.31990192236293Z"><title>F_Hispanic --&gt; M_White 19</title></path><path style="mix-blend-mode: multiply;" fill="#2ca02c" d="M201.81740568134052,-199.81425065308335A284,284,0,0,1,204.96076801239445,-196.58861507159926Q0,0,261.2486512945043,111.378374008613A284,284,0,0,1,259.44951173165055,115.50736280518285Q0,0,201.81740568134052,-199.81425065308335Z"><title>F_Hispanic --&gt; F_White 21</title></path><path style="mix-blend-mode: multiply;" fill="#8c564b" d="M251.60248682978704,131.72770635316942A284,284,0,0,1,249.48185172064183,135.70116308285523Q0,0,156.31084751969948,-237.11372576819178A284,284,0,0,1,160.05144376179803,-234.60506249815668Q0,0,251.60248682978704,131.72770635316942Z"><title>F_White --&gt; F_Black 21</title></path><path style="mix-blend-mode: multiply;" fill="#bcbd22" d="M-153.0108013451817,239.25654572384292A284,284,0,0,1,-156.78579435023326,236.7999465582Q0,0,263.356681030646,106.29797061337811A284,284,0,0,1,261.637843627743,110.46102833952207Q0,0,-153.0108013451817,239.25654572384292Z"><title>M_Hispanic --&gt; F_White 21</title></path><path style="mix-blend-mode: multiply;" fill="#8c564b" d="M249.00417252188362,136.57570086472933A284,284,0,0,1,246.4172771578939,141.18967921944477Q0,0,185.3510532504425,-215.17664152726158A284,284,0,0,1,189.32653802663958,-211.68717958073748Q0,0,249.00417252188362,136.57570086472933Z"><title>F_White --&gt; F_Hispanic 24</title></path><path style="mix-blend-mode: multiply;" fill="#8c564b" d="M245.92035891200032,142.05343034433534A284,284,0,0,1,243.23197650116094,146.6090229397178Q0,0,-137.71484724065743,248.37596673084613A284,284,0,0,1,-142.31692775507543,245.76796388943097Q0,0,245.92035891200032,142.05343034433534Z"><title>F_White --&gt; M_Hispanic 24</title></path><path style="mix-blend-mode: multiply;" fill="#ff7f0e" d="M-271.11273977443693,-84.58062622136613A284,284,0,0,1,-269.15797573891916,-90.6089625596022Q0,0,-131.25562496516187,251.84908360961884A284,284,0,0,1,-136.84250667282433,248.85764679329836Q0,0,-271.11273977443693,-84.58062622136613Z"><title>M_White --&gt; M_Hispanic 28</title></path><path style="mix-blend-mode: multiply;" fill="#ff7f0e" d="M-268.83839334197717,-91.55281680704518A284,284,0,0,1,-265.81780543287675,-99.98447036839903Q0,0,177.69756302124912,-221.5391073745428A284,284,0,0,1,184.59490806813903,-215.8256701954503Q0,0,-268.83839334197717,-91.55281680704518Z"><title>M_White --&gt; F_Hispanic 38</title></path><path style="mix-blend-mode: multiply;" fill="#bcbd22" d="M-157.61570451918266,236.24836441533662A284,284,0,0,1,-165.625809811455,230.70347011759432Q0,0,-280.7222879068622,-43.02321550438493A284,284,0,0,1,-279.0815166727349,-52.626106179784955Q0,0,-157.61570451918266,236.24836441533662Z"><title>M_Hispanic --&gt; M_White 41</title></path><path style="mix-blend-mode: multiply;" fill="#8c564b" d="M242.71606266102452,147.4615642339712A284,284,0,0,1,235.48550822872568,158.75319024907424Q0,0,-0.4807397882336846,283.9995931145959A284,284,0,0,1,-13.884719569219296,283.6603859591327Q0,0,242.71606266102452,147.4615642339712Z"><title>F_White --&gt; M_Asian 55</title></path><path style="mix-blend-mode: multiply;" fill="#e377c2" d="M-24.80833067122972,282.91438056293094A284,284,0,0,1,-40.987074940733464,281.0267953199529Q0,0,269.3353464415214,90.08035944214284A284,284,0,0,1,263.72803444716646,105.37325963751044Q0,0,-24.80833067122972,282.91438056293094Z"><title>M_Asian --&gt; F_White 66</title></path><path style="mix-blend-mode: multiply;" fill="#e377c2" d="M-41.972879542847195,280.88125139083536A284,284,0,0,1,-58.26321397758676,277.9593457630125Q0,0,52.5786410775931,-279.09046293708A284,284,0,0,1,68.7466514505519,-275.5538022135357Q0,0,-41.972879542847195,280.88125139083536Z"><title>M_Asian --&gt; F_Asian 67</title></path><path style="mix-blend-mode: multiply;" fill="#1f77b4" d="M80.57369227080513,-272.3304612301929A284,284,0,0,1,98.26902757876766,-266.456747369481Q0,0,19.149276505139746,283.35367512938615A284,284,0,0,1,0.5157509267651018,283.9995316914828Q0,0,80.57369227080513,-272.3304612301929Z"><title>F_Asian --&gt; M_Asian 75</title></path><path style="mix-blend-mode: multiply;" fill="#8c564b" d="M234.92703104785483,159.5784762524077A284,284,0,0,1,223.46593691062776,175.2682944535472Q0,0,32.382806205381456,-282.14775182918737A284,284,0,0,1,51.59905464459908,-279.2732310118241Q0,0,234.92703104785483,159.5784762524077Z"><title>F_White --&gt; F_Asian 78</title></path><path style="mix-blend-mode: multiply;" fill="#1f77b4" d="M99.20335669805802,-266.1103042346122A284,284,0,0,1,120.02259033261767,-257.39187595930184Q0,0,275.8765901468088,67.43965457332722A284,284,0,0,1,269.64975927288384,89.13477056724729Q0,0,99.20335669805802,-266.1103042346122Z"><title>F_Asian --&gt; F_White 90</title></path><path style="mix-blend-mode: multiply;" fill="#1f77b4" d="M120.92497904167686,-256.969160491624A284,284,0,0,1,147.04494889319187,-242.9686872932366Q0,0,-283.7230174536388,-12.53991096468245A284,284,0,0,1,-280.8715181962933,-42.03796220214856Q0,0,120.92497904167686,-256.969160491624Z"><title>F_Asian --&gt; M_White 117</title></path><path style="mix-blend-mode: multiply;" fill="#ff7f0e" d="M-265.4653471460078,-100.91654703094817A284,284,0,0,1,-252.9105688207755,-129.1984681749431Q0,0,0.4982453584459319,-283.99956294255594A284,284,0,0,1,31.3926167851386,-282.25963865097935Q0,0,-265.4653471460078,-100.91654703094817Z"><title>M_White --&gt; F_Asian 122</title></path><path style="mix-blend-mode: multiply;" fill="#ff7f0e" d="M-252.45568494229084,-130.0850765473072A284,284,0,0,1,-236.2247939832731,-157.6510282477098Q0,0,51.87381187990467,279.2223265447236A284,284,0,0,1,20.143380008736475,283.28474057355015Q0,0,-252.45568494229084,-130.0850765473072Z"><title>M_White --&gt; M_Asian 126</title></path><path style="mix-blend-mode: multiply;" fill="#e377c2" d="M-59.2381492735687,277.75320280897284A284,284,0,0,1,-98.2526031518538,266.4628041094748Q0,0,-282.5101885739484,29.05156367413149A284,284,0,0,1,-283.76527052755046,-11.544316455559205Q0,0,-59.2381492735687,277.75320280897284Z"><title>M_Asian --&gt; M_White 159</title></path><path style="mix-blend-mode: multiply;" fill="#8c564b" d="M222.84958610389253,176.05130494638138A284,284,0,0,1,62.609505295204976,277.01272506274813Q0,0,-200.72099835885072,200.9156062077465A284,284,0,0,1,-282.4065144144251,30.042646626007095Q0,0,222.84958610389253,176.05130494638138Z"><title>F_White --&gt; M_White 741</title></path><path style="mix-blend-mode: multiply;" fill="#ff7f0e" d="M-235.67017947871315,-158.4789150154402A284,284,0,0,1,-41.518204957911685,-280.94881857212505Q0,0,235.06173764059005,-159.37998461973325A284,284,0,0,1,276.11152180530644,66.4712533833821Q0,0,-235.67017947871315,-158.4789150154402Z"><title>M_White --&gt; F_White 906</title></path></g></svg>